<?xml version="1.0" encoding="utf-8"?>
<!-- Generator: Adobe Illustrator 19.2.0, SVG Export Plug-In . SVG Version: 6.00 Build 0)  -->
<svg version="1.1" id="Layer_1" xmlns="http://www.w3.org/2000/svg" xmlns:xlink="http://www.w3.org/1999/xlink" x="0px" y="0px"
	 viewBox="0 0 720 720" style="enable-background:new 0 0 720 720;" xml:space="preserve">
<style type="text/css">
	.st0{fill:#FFFFFF;}
	.st1{fill:#FFFFFF;stroke:#011F5C;stroke-width:9.3384;stroke-miterlimit:10;}
	.st2{fill:#FFFFFF;stroke:#011F5C;stroke-width:2.053;stroke-miterlimit:10;}
	.st3{fill:#FFFFFF;stroke:#011F5C;stroke-width:2;stroke-miterlimit:10;}
	.st4{fill:#011F5C;}
	.st5{fill:none;stroke:#011F5C;stroke-width:2.053;stroke-miterlimit:10;}
	.st6{fill:none;stroke:#011F5C;stroke-width:1.5398;stroke-miterlimit:10;}
	.st7{fill:#FFFFFF;stroke:#011F5C;stroke-width:1.5398;stroke-miterlimit:10;}
</style>
<path class="st0" d="M358.5,673.6c-42.6,0-83.9-8.3-122.8-24.8c-37.6-15.9-71.3-38.6-100.3-67.6c-29-29-51.7-62.7-67.6-100.3
	C51.4,442.1,43,400.7,43,358.2s8.3-83.9,24.8-122.8c15.9-37.6,38.6-71.3,67.6-100.3c29-29,62.7-51.7,100.3-67.6
	C274.6,51,316,42.7,358.5,42.7s83.9,8.3,122.8,24.8c37.6,15.9,71.3,38.6,100.3,67.6c29,29,51.7,62.7,67.6,100.3
	c16.5,38.9,24.8,80.2,24.8,122.8s-8.3,83.9-24.8,122.8c-15.9,37.6-38.6,71.3-67.6,100.3s-62.7,51.7-100.3,67.6
	C442.4,665.3,401.1,673.6,358.5,673.6z"/>
<path class="st1" d="M358.5,706.6c-47,0-92.7-9.2-135.7-27.4c-41.5-17.6-78.8-42.7-110.8-74.7c-32-32-57.1-69.3-74.7-110.8
	c-18.2-43-27.4-88.6-27.4-135.7s9.2-92.7,27.4-135.7C55,181,80.1,143.7,112.1,111.8c32-32,69.3-57.1,110.8-74.7
	c43-18.2,88.6-27.4,135.7-27.4s92.7,9.2,135.7,27.4c41.5,17.6,78.8,42.7,110.8,74.7c32,32,57.1,69.3,74.7,110.8
	c18.2,43,27.4,88.6,27.4,135.7s-9.2,92.7-27.4,135.7c-17.6,41.5-42.7,78.8-74.7,110.8s-69.3,57.1-110.8,74.7
	C451.2,697.4,405.6,706.6,358.5,706.6z"/>
<g>
	<path class="st2" d="M231.9,474.8c0,0-7.3,4.6-14,0c-6.7-4.6-8.2-10-9.8-18.3c0,0-6.4-8.3-10.1-20s-16.2-24.3-20.1-26.8
		c0,0-17.7-19.1-16.8-41.4c0,0-3.4-23.7,20.7-22c0,0,7,0.3,12.8,4.6s27.7,26.2,27.7,26.2l16.5,83.3L231.9,474.8z"/>
	<path class="st3" d="M506.2,344.1c0,0,20.4-15.1,36.5-10s17.9,11.7,19.2,19.4s0.4,13.7,2.3,18.5c1.8,4.9-3.6,20.5-13.6,28.5
		c-10.1,8-25.6,43.4-25.6,43.4s-5.3,23.4-18.7,16.8c-13.4-6.6-17.2-8.6-17.2-8.6v-95.9L506.2,344.1z"/>
	<g>
		<path class="st4" d="M186.8,356.3c-1.2-0.5-2.5-0.9-3.8-1.2c-1.3-0.3-2.6-0.6-3.9-0.7c-2.6-0.2-5.4,0-7.6,1.3
			c-1.1,0.6-2.1,1.5-2.8,2.5c-0.7,1-1.2,2.2-1.6,3.4c-0.4,1.2-0.6,2.5-0.7,3.8c0,0.6-0.1,1.3-0.1,2c0,0.7-0.1,1.4,0,2
			c0.1,1.3,0.1,2.6,0.4,3.9l0.3,1.9l0.5,1.9l0.3,0.9l0.3,0.9l0.7,1.8c0.6,1.2,1,2.4,1.7,3.6c0.6,1.2,1.3,2.3,2,3.4
			c0.7,1.1,1.5,2.2,2.3,3.2c0.8,1,1.7,2.1,2.6,3c0.9,1,1.8,1.9,2.8,2.8l-0.1-0.1c0.9,0.5,1.7,1.1,2.5,1.7c0.8,0.6,1.6,1.2,2.3,1.9
			c0.7,0.7,1.5,1.3,2.2,2c0.7,0.7,1.4,1.4,2.1,2.2c0.6,0.8,1.3,1.5,1.9,2.3c0.6,0.8,1.2,1.6,1.7,2.4c0.6,0.8,1,1.7,1.6,2.5
			c0.5,0.9,0.9,1.8,1.4,2.7c0.4,0.9,0.8,1.8,1.2,2.7l1.1,2.7c0.7,1.8,1.4,3.6,2.1,5.4c0.4,0.9,0.8,1.8,1.2,2.6
			c0.4,0.8,0.9,1.7,1.5,2.4c0.6,0.7,1.4,1.3,2.2,1.8c0.8,0.5,1.7,0.9,2.6,1.3c-0.9-0.3-1.9-0.6-2.7-1c-0.9-0.4-1.7-1-2.4-1.7
			c-0.7-0.7-1.3-1.6-1.8-2.4c-0.5-0.9-1-1.7-1.4-2.6c-0.9-1.8-1.7-3.6-2.4-5.3l-1.2-2.7c-0.4-0.9-0.8-1.7-1.2-2.6
			c-0.4-0.8-0.9-1.7-1.4-2.5c-0.5-0.8-1-1.6-1.6-2.4c-0.6-0.8-1.1-1.5-1.7-2.3c-0.6-0.8-1.2-1.5-1.9-2.2c-0.7-0.7-1.3-1.4-2-2
			c-0.7-0.7-1.4-1.3-2.1-1.9c-0.7-0.6-1.5-1.2-2.2-1.8c-0.8-0.6-1.6-1.1-2.3-1.6l-0.1-0.1l-0.1,0c-1.1-0.9-2-1.9-3-2.9
			c-0.9-1-1.8-2-2.7-3.1c-0.9-1.1-1.6-2.2-2.4-3.4c-0.7-1.2-1.5-2.3-2.1-3.6c-0.7-1.2-1.2-2.5-1.8-3.7l-0.7-2l-0.3-1l-0.3-1l-0.5-2
			l-0.3-2.1c-0.3-1.4-0.2-2.8-0.3-4.2c-0.1-0.7,0.1-1.4,0.1-2c0.1-0.7,0.1-1.3,0.2-2.1c0.2-1.4,0.5-2.8,0.9-4.1
			c0.5-1.3,1.1-2.6,2-3.8c0.9-1.1,2-2.1,3.3-2.7c1.3-0.6,2.7-1,4.1-1.1c1.4-0.1,2.8,0,4.1,0.2C181.8,354.2,184.4,355.1,186.8,356.3z
			"/>
	</g>
	<g>
		<path class="st4" d="M206.7,393.6c0,0,0,0.4-0.1,1c0,0.3-0.1,0.7-0.1,1.1c-0.1,0.4-0.1,0.9-0.2,1.4c-0.1,0.5-0.2,1-0.3,1.6
			c-0.1,0.6-0.2,1.2-0.3,1.8c-0.2,0.6-0.2,1.3-0.4,1.9c-0.1,0.7-0.2,1.3-0.3,2c-0.1,0.7-0.2,1.4,0,2c0.1,0.3,0.1,0.7,0.3,1
			c0.1,0.3,0.3,0.6,0.5,0.9c0.2,0.3,0.3,0.5,0.5,0.8c0.2,0.2,0.4,0.5,0.5,0.7c0.1,0.2,0.3,0.5,0.4,0.7c0.1,0.2,0.3,0.4,0.4,0.7
			c0.3,0.4,0.5,0.8,0.6,1.2c0.2,0.3,0.4,0.7,0.6,0.9c0.3,0.5,0.4,0.9,0.4,0.9l-0.1,0.2c0,0-0.4-0.1-0.9-0.5c-0.3-0.2-0.6-0.4-1-0.7
			c-0.3-0.3-0.7-0.7-1-1.1c-0.4-0.4-0.7-0.9-0.9-1.5c-0.1-0.3-0.2-0.6-0.3-0.9c0-0.3-0.1-0.7-0.1-1c-0.1-0.7-0.1-1.4-0.3-2.1
			c-0.2-0.7-0.3-1.4-0.5-2.1c-0.2-0.7-0.3-1.4-0.4-2.2c0-0.7,0-1.4,0.1-2.1c0-0.7,0.2-1.3,0.4-1.9c0.2-0.6,0.4-1.2,0.6-1.7
			c0.5-1,0.9-1.8,1.3-2.3c0.4-0.5,0.7-0.8,0.7-0.8L206.7,393.6z"/>
	</g>
	<g>
		<path class="st4" d="M514.9,393.5c0,0,0.3,0.2,0.7,0.8c0.4,0.5,0.9,1.3,1.3,2.3c0.2,0.5,0.4,1.1,0.6,1.7c0.2,0.6,0.3,1.3,0.4,1.9
			c0.1,0.7,0.1,1.4,0.1,2.1c0,0.7-0.2,1.5-0.4,2.2c-0.2,0.7-0.3,1.4-0.5,2.1c-0.2,0.7-0.2,1.4-0.3,2.1c0,0.4-0.1,0.7-0.1,1
			c-0.1,0.3-0.2,0.6-0.3,0.9c-0.2,0.6-0.6,1.1-0.9,1.5c-0.4,0.4-0.7,0.8-1,1.1c-0.4,0.3-0.7,0.5-1,0.7c-0.6,0.3-0.9,0.5-0.9,0.5
			l-0.1-0.2c0,0,0.1-0.4,0.4-0.9c0.1-0.3,0.3-0.6,0.6-0.9c0.2-0.4,0.4-0.8,0.6-1.2c0.1-0.2,0.3-0.4,0.4-0.7c0.1-0.2,0.2-0.5,0.4-0.7
			c0.1-0.2,0.3-0.5,0.5-0.7c0.2-0.3,0.3-0.5,0.5-0.8c0.2-0.3,0.4-0.6,0.5-0.9c0.1-0.3,0.2-0.6,0.3-1c0.2-0.7,0.1-1.4,0-2
			c-0.1-0.7-0.3-1.4-0.3-2c-0.1-0.7-0.2-1.3-0.4-1.9c-0.1-0.6-0.2-1.2-0.3-1.8c-0.1-0.6-0.2-1.1-0.3-1.6c-0.1-0.5-0.1-1-0.2-1.4
			c-0.1-0.4-0.1-0.8-0.1-1.1c-0.1-0.6-0.1-1-0.1-1L514.9,393.5z"/>
	</g>
	<g>
		<path class="st4" d="M531.7,346.3c0,0,0.2-0.2,0.7-0.5c0.4-0.3,1.1-0.8,2-1.4c0.9-0.6,2-1.2,3.3-1.8c1.3-0.6,2.8-1.3,4.6-1.7
			c0.9-0.2,1.8-0.4,2.8-0.4c1,0,2.1,0,3.1,0.3c1.1,0.3,2.1,0.8,3.1,1.5c0.9,0.7,1.7,1.7,2.4,2.7c1.2,2,1.9,4.5,2.2,6.8
			c0.4,2.3,0.8,4.6,1.3,6.9c0.5,2.3,1,4.6,1.4,6.9c0.5,2.3,0.8,4.6,0.9,6.9c0.1,1.1,0,2.3-0.1,3.4c0,0.6-0.2,1.1-0.2,1.6
			c-0.1,0.5-0.2,1.1-0.3,1.6c-0.3,1-0.5,2-1,2.9c-0.2,0.5-0.4,0.9-0.6,1.3c-0.2,0.4-0.5,0.8-0.7,1.2c-0.2,0.4-0.4,0.8-0.6,1.2
			c-0.2,0.4-0.5,0.7-0.7,1c-0.5,0.7-0.9,1.3-1.4,1.9c-0.9,1.1-1.7,2.1-2.4,2.9c-1.4,1.5-2.3,2.4-2.3,2.4s0.7-1,1.9-2.6
			c0.6-0.8,1.3-1.9,2.1-3.1c0.4-0.6,0.7-1.3,1.1-2c0.2-0.4,0.4-0.7,0.6-1.1c0.2-0.4,0.4-0.8,0.5-1.2c0.2-0.4,0.4-0.8,0.6-1.2
			c0.1-0.4,0.3-0.9,0.4-1.3c0.1-0.4,0.3-0.9,0.4-1.3c0.1-0.5,0.2-0.9,0.3-1.4c0.1-0.5,0.2-1,0.2-1.5c0-0.5,0.1-1,0.1-1.5
			c0-1,0.1-2.1-0.1-3.1c-0.1-2.1-0.6-4.4-1-6.6c-0.5-2.3-1-4.6-1.5-6.9c-0.5-2.3-0.9-4.7-1.3-7c-0.4-2.3-0.8-4.4-1.8-6.2
			c-0.5-0.9-1.1-1.6-1.8-2.3c-0.7-0.6-1.6-1-2.4-1.3c-1.8-0.5-3.7-0.5-5.3-0.2c-1.7,0.3-3.2,0.8-4.6,1.3c-1.3,0.5-2.5,1-3.4,1.5
			C532.7,345.6,531.7,346.3,531.7,346.3z"/>
	</g>
	<g>
		<path class="st4" d="M540.2,379.7c0,0,0.3,2.7,0.1,6.8c-0.1,2-0.2,4.4-0.6,6.9c-0.2,1.3-0.3,2.6-0.6,3.9c-0.2,1.3-0.5,2.6-0.8,4
			c-0.3,1.3-0.7,2.6-1.1,3.9c-0.4,1.3-0.9,2.5-1.4,3.7c-0.5,1.2-1,2.3-1.6,3.3c-0.3,0.5-0.6,1-0.9,1.5c-0.3,0.5-0.6,0.9-0.9,1.3
			c-0.3,0.4-0.6,0.8-0.9,1.2c-0.3,0.4-0.6,0.7-0.9,1c-0.3,0.3-0.6,0.6-0.8,0.8c-0.3,0.2-0.5,0.4-0.8,0.6c-0.4,0.4-0.9,0.6-1.1,0.8
			c-0.3,0.2-0.4,0.3-0.4,0.3s0.1-0.1,0.3-0.4c0.2-0.2,0.6-0.5,0.9-1c0.2-0.2,0.4-0.5,0.6-0.7c0.2-0.3,0.4-0.6,0.7-0.9
			c0.2-0.3,0.5-0.7,0.7-1.1c0.2-0.4,0.5-0.8,0.7-1.2c2-3.4,3.7-8.4,5-13.6c0.7-2.6,1.2-5.2,1.7-7.6c0.2-1.2,0.4-2.4,0.6-3.6
			c0.2-1.1,0.4-2.2,0.5-3.2C539.8,382.4,540.2,379.7,540.2,379.7z"/>
	</g>
	<path class="st2" d="M476.3,188.2c-41-22.6-82.2-54.9-115.5-50c-33.3-4.9-73.3,11.2-115.5,31.6c-58.8,28.4-44.9,154.1-44.9,154.1
		l8.3,71.5c0,0,3,104,54.8,145.3c37.2,29.6,38.1,31.8,38.1,31.8s12,14.2,34,21.2l0,0.2c2.3,0.7,4.5,1.2,6.7,1.6
		c0.8,0.2,1.6,0.3,2.4,0.5c0.2,0,9.3,1.4,14,1.5c0.6,0,3.1,0,3.7,0c4.7-0.1,13.8-1.5,14-1.5c0.8-0.2,6.9-1.5,9.2-2.1l0-0.2
		c22-7,34-21.2,34-21.2s1-2.1,38.1-31.8c51.8-41.3,54.8-145.3,54.8-145.3l8.3-71.5C521.2,323.8,535.1,220.6,476.3,188.2z"/>
	<path class="st5" d="M262.5,335.3c0,0-27.8-1.5-29.3,18.7c-2.2,28.8-7.9,44.3,27.5,50c35.5,5.7,60.7,1.9,70.6-11.8
		c9.9-13.7,23.5-47.2,4.1-52.1C316,335.3,262.5,335.3,262.5,335.3z"/>
	<path class="st6" d="M336.5,372.2c0.5-1.3,1.2-2.6,2.2-3.6c0.4-0.5,0.9-0.9,1.4-1.1c0.6-0.2,1.3-0.2,1.7,0.2c0.5,0.4,0.6,1,0.6,1.6
		s-0.3,1.1-0.6,1.7c-1.2,2.6-2.3,5.2-3,8c-0.2,0.7-0.3,1.5-0.8,2.1c-0.4,0.6-1.2,1.1-1.9,0.9c-0.7-0.2-1.1-0.8-1.2-1.5
		c-0.1-0.7,0-1.4,0.1-2C335.6,375.7,335.6,374.8,336.5,372.2z"/>
	<polygon class="st4" points="234.1,349.5 210,344.5 210,354.1 232.4,359.1 	"/>
	<path class="st6" d="M374.5,361.3c0,0-12.3-7.5-30.6,0"/>
	<g>
		<path class="st4" d="M319.6,353.7c0,0-0.5-0.6-1.5-1.6c-1-1-2.5-2.2-4.4-3.6c-1-0.7-2.1-1.3-3.3-1.9c-1.2-0.6-2.5-1.2-3.9-1.6
			c-1.4-0.5-2.8-0.8-4.3-1c-1.5-0.2-3-0.3-4.6-0.2c-0.8,0-1.5,0.1-2.3,0.2c-0.8,0.1-1.5,0.2-2.3,0.4c-1.5,0.3-2.9,0.8-4.3,1.3
			c-1.4,0.5-2.6,1.1-3.9,1.7c-1.2,0.7-2.3,1.2-3.3,1.9c-0.5,0.3-1,0.6-1.4,0.9c-0.4,0.3-0.9,0.6-1.3,0.9c-0.8,0.5-1.5,1-2,1.5
			c-1.1,0.8-1.8,1.3-1.8,1.3s0.6-0.6,1.6-1.5c0.5-0.5,1.1-1.1,1.9-1.7c0.4-0.3,0.8-0.7,1.2-1c0.4-0.3,0.9-0.7,1.4-1
			c1-0.7,2.1-1.4,3.2-2.2c1.2-0.7,2.5-1.4,3.9-2c1.4-0.6,2.9-1.1,4.5-1.5c0.8-0.2,1.6-0.3,2.4-0.5c0.8-0.1,1.6-0.2,2.4-0.2
			c1.6,0,3.3,0,4.9,0.3c1.6,0.3,3.1,0.7,4.6,1.2c1.4,0.5,2.8,1.2,4,1.9c1.2,0.7,2.3,1.5,3.2,2.2c1.9,1.5,3.2,3,4.1,4.1
			C319.2,353.1,319.6,353.7,319.6,353.7z"/>
	</g>
	<g>
		<path class="st4" d="M332.6,351.8c0,0-1-0.5-2.7-1.2c-1.7-0.8-4.2-1.8-7.3-2.9c-3-1.1-6.6-2.3-10.5-3.3c-1.9-0.5-4-1-6-1.4
			c-2.1-0.4-4.2-0.7-6.3-0.9c-2.1-0.2-4.2-0.3-6.3-0.3c-1,0-2.1,0.1-3.1,0.1c-1,0.1-2,0.1-3,0.3c-0.5,0.1-1,0.1-1.5,0.2
			c-0.5,0.1-1,0.2-1.4,0.3c-0.9,0.2-1.8,0.4-2.7,0.6c-0.9,0.2-1.7,0.6-2.5,0.8c-0.8,0.3-1.6,0.6-2.3,0.9c-1.5,0.6-2.7,1.4-3.7,2.1
			c-1,0.8-1.8,1.6-2.5,2.3c-0.6,0.7-1,1.3-1.3,1.7c-0.3,0.4-0.4,0.7-0.4,0.7s0.1-0.3,0.3-0.7c0.2-0.5,0.5-1.1,1.1-1.9
			c0.6-0.8,1.3-1.7,2.3-2.6c1-0.9,2.2-1.9,3.7-2.6c0.7-0.4,1.5-0.8,2.3-1.1c0.8-0.3,1.7-0.7,2.6-1c0.9-0.3,1.8-0.6,2.8-0.8
			c0.5-0.1,1-0.2,1.5-0.4c0.5-0.1,1-0.2,1.5-0.3c2-0.4,4.2-0.6,6.4-0.6c2.2-0.1,4.4,0.1,6.6,0.3c2.2,0.3,4.4,0.6,6.5,1
			c2.1,0.4,4.2,1,6.1,1.6c3.9,1.2,7.5,2.6,10.5,4c3,1.4,5.4,2.7,7,3.6C331.7,351.2,332.6,351.8,332.6,351.8z"/>
	</g>
	<g>
		<path class="st4" d="M341.4,446.2c0,0-0.3,0-0.9,0c-0.6,0-1.5-0.1-2.6-0.5c-0.5-0.2-1.1-0.5-1.7-0.9c-0.6-0.4-1.1-1-1.4-1.8
			c-0.3-0.8-0.4-1.7-0.3-2.6c0.1-0.8,0.5-2.1,1.6-2.6c1.1-0.5,2.3-0.1,3.3,0.3c1,0.4,2,1,2.9,1.6c0.9,0.6,1.8,1.4,2.7,2.2
			c0.9,0.8,1.7,1.5,2.6,2.3c1.8,1.6,3.7,3.3,5.6,4.7c2,1.3,4.4,2.2,6.8,2.3c2.4,0.1,4.7-0.7,6.6-2.2c1.9-1.6,3.8-3.2,5.6-4.8
			c0.9-0.8,1.8-1.5,2.7-2.3c0.8-0.7,1.8-1.5,2.7-2.1c0.9-0.6,1.9-1.2,2.9-1.6c1-0.4,2.1-0.8,3.3-0.3c0.6,0.2,1,0.7,1.2,1.2
			c0.2,0.5,0.4,0.9,0.4,1.4c0.1,0.8,0.1,1.8-0.3,2.6c-0.3,0.8-0.8,1.4-1.4,1.8c-0.6,0.4-1.1,0.7-1.7,0.9c-1.1,0.4-2,0.5-2.6,0.5
			c-0.6,0-0.9,0-0.9,0s0.3,0,0.9-0.1c0.6-0.1,1.5-0.3,2.5-0.7c1-0.4,2.2-1.2,2.7-2.6c0-0.2,0.1-0.4,0.1-0.5c0-0.2,0-0.4,0-0.6
			c0.1-0.4-0.1-0.8-0.1-1.2c-0.1-0.8-0.5-1.6-1.2-1.9c-0.7-0.3-1.7,0-2.5,0.4c-0.9,0.4-1.8,1-2.6,1.6c-0.9,0.7-1.6,1.4-2.5,2.2
			c-0.9,0.8-1.7,1.6-2.6,2.4c-1.8,1.6-3.6,3.3-5.6,4.9c-0.5,0.4-1.1,0.8-1.7,1.1c-0.3,0.2-0.6,0.3-0.9,0.5l-1,0.4
			c-1.3,0.4-2.7,0.7-4.1,0.6c-2.7-0.1-5.3-1.1-7.5-2.6c-1.1-0.8-2-1.6-3-2.4c-0.9-0.8-1.8-1.6-2.7-2.5c-0.9-0.8-1.8-1.6-2.6-2.4
			c-0.8-0.8-1.6-1.5-2.5-2.2c-0.9-0.7-1.7-1.2-2.6-1.6c-0.9-0.4-1.8-0.7-2.5-0.4c-0.3,0.1-0.6,0.4-0.8,0.7c-0.1,0.2-0.2,0.4-0.2,0.5
			c0,0.2-0.1,0.5-0.2,0.6c-0.1,0.8-0.2,1.6,0.1,2.3c0.5,1.4,1.7,2.2,2.7,2.6c1,0.4,1.9,0.6,2.5,0.7
			C341,446.2,341.4,446.2,341.4,446.2z"/>
	</g>
	<g>
		<path class="st4" d="M335.4,414.5c0,0-1.9,2-4.3,5.3c-0.3,0.4-0.6,0.8-0.9,1.3c-0.3,0.5-0.6,0.9-0.9,1.4c-0.3,0.5-0.6,1-0.9,1.5
			c-0.3,0.5-0.6,1.1-0.8,1.6c-0.3,0.6-0.5,1.1-0.7,1.7c-0.2,0.6-0.5,1.2-0.6,1.8l-0.3,0.9c-0.1,0.3-0.1,0.6-0.2,0.9l-0.2,1
			c0,0.3-0.1,0.6-0.1,1l-0.1,1c0,0.3,0,0.6,0,0.9c0,0.6,0.1,1.3,0.1,1.9c0.2,1.3,0.4,2.5,0.7,3.7c0.4,1.1,0.8,2.2,1.4,3.1
			c0.6,0.9,1.3,1.6,2.1,2.2c0.8,0.5,1.6,0.9,2.4,1.2c0.8,0.2,1.5,0.4,2.1,0.4c0.6,0.1,1.1,0.1,1.4,0.1c0.3,0,0.5,0,0.5,0
			s-0.2,0-0.5,0.1c-0.3,0.1-0.8,0.2-1.4,0.2c-1.2,0.1-3.1,0.1-5-1c-1-0.5-1.9-1.3-2.7-2.3c-0.8-1-1.5-2.2-1.9-3.4
			c-0.5-1.3-0.8-2.6-1-4c-0.1-0.7-0.2-1.4-0.2-2.1c0-0.4,0-0.7,0-1.1l0.1-1.1c0-0.4,0.1-0.7,0.1-1.1l0.2-1c0.1-0.3,0.1-0.7,0.2-1
			l0.3-1c0.2-0.7,0.5-1.3,0.7-1.9c0.3-0.6,0.6-1.2,0.9-1.8c0.6-1.2,1.3-2.2,2-3.2c0.7-1,1.4-1.8,2.1-2.6c0.7-0.8,1.4-1.4,2-2
			c0.6-0.6,1.2-1,1.6-1.4C334.8,414.8,335.4,414.5,335.4,414.5z"/>
	</g>
	<path class="st4" d="M293.6,493.7l73.9-4.1c0,0,41.7-5.1,63.6,8.8c0,0,6.4,8.3-13.3-1.7s-119.1-0.3-119.1-0.3
		S288.7,501.9,293.6,493.7z"/>
	<g>
		<path class="st4" d="M320.1,434.7c0,0-0.9,0.8-2.4,2.3c-1.5,1.4-3.7,3.5-6.2,6.1c-2.5,2.5-5.5,5.5-8.5,8.8
			c-1.5,1.6-3.1,3.3-4.6,5.1c-1.6,1.7-3.1,3.6-4.6,5.4c-1.5,1.8-3,3.7-4.3,5.6c-1.4,1.9-2.7,3.8-3.8,5.7c-2.3,3.8-4,7.5-4.9,10.9
			c-0.4,1.7-0.6,3.3-0.6,4.7c0,1.4,0.3,2.7,0.6,3.6c0.3,1,0.7,1.7,0.9,2.2c0.3,0.5,0.4,0.7,0.4,0.7s-0.2-0.2-0.5-0.7
			c-0.3-0.5-0.8-1.2-1.2-2.1c-0.4-1-0.8-2.2-1-3.7c-0.2-1.5-0.1-3.2,0.2-5c0.6-3.6,2.2-7.7,4.5-11.6c1.1-2,2.4-4,3.7-5.9
			c1.4-1.9,2.8-3.9,4.3-5.7c1.5-1.9,3.1-3.7,4.7-5.4c1.6-1.8,3.2-3.4,4.8-5c3.2-3.2,6.3-6,9-8.4c2.7-2.4,5.1-4.2,6.7-5.5
			C319.1,435.4,320.1,434.7,320.1,434.7z"/>
	</g>
	<g>
		<path class="st4" d="M286.2,510.1c-0.3,3-0.5,6-0.6,9c-0.1,3,0,6,0.1,9c0.1,1.5,0.2,3,0.3,4.5c0.1,1.5,0.3,3,0.5,4.5
			c0.2,1.5,0.4,3,0.7,4.5c0.3,1.5,0.5,3,0.9,4.4c0.3,1.5,0.7,2.9,1.1,4.4c0.4,1.4,0.9,2.9,1.4,4.3c0.2,0.7,0.5,1.4,0.8,2.1
			c0.3,0.7,0.5,1.4,0.9,2.1l0.9,2l1,2c0.3,0.7,0.7,1.3,1.1,1.9c0.4,0.6,0.8,1.3,1.2,1.9c0.4,0.6,0.8,1.2,1.3,1.8l1.4,1.7
			c1,1.1,2,2.2,3.1,3.2c1,1.1,2.2,1.9,3.4,2.9l-0.8,1.1l-4-2.9l-2-1.4c-0.7-0.5-1.3-1.1-1.9-1.6l-3.8-3.2l-3.6-3.4
			c-0.6-0.6-1.2-1.1-1.8-1.7l-1.7-1.9c-1.1-1.2-2.3-2.4-3.3-3.7l-3.1-3.9c-0.5-0.6-1-1.3-1.5-2l-1.4-2.1l-1.4-2.1
			c-0.5-0.7-0.8-1.4-1.3-2.1c-0.8-1.4-1.7-2.9-2.4-4.3l-2.2-4.5c-0.7-1.5-1.3-3-2-4.6l-1-2.3l-0.8-2.3l-0.8-2.3l-0.4-1.2l-0.4-1.2
			l-1.4-4.8l-1.2-4.8c-0.4-1.6-0.7-3.2-1-4.9l-0.5-2.4l-0.4-2.4c-0.6-3.3-0.9-6.6-1.2-9.8l-0.4-4.9l-0.2-4.9c-0.1-3.3-0.1-6.6,0-9.9
			c0.1-3.3,0.3-6.6,0.6-9.9c0.3-3.3,0.7-6.6,1.1-9.8c0.5-3.3,1-6.5,1.6-9.7c0.6-3.2,1.4-6.4,2.2-9.6c-0.8,3.2-1.4,6.4-2,9.7
			c-0.6,3.2-1,6.5-1.4,9.8c-0.7,6.5-1.2,13.1-1.3,19.7c-0.1,3.3,0,6.6,0.1,9.8l0.3,4.9l0.4,4.9c0.4,3.3,0.7,6.5,1.3,9.7l0.4,2.4
			l0.5,2.4c0.4,1.6,0.6,3.2,1,4.8l1.2,4.8l1.4,4.7l0.4,1.2l0.4,1.2l0.8,2.3l0.8,2.3l1,2.3c0.7,1.5,1.2,3,2,4.5l2.2,4.4
			c0.8,1.4,1.6,2.8,2.4,4.3c0.4,0.7,0.8,1.4,1.2,2.1l1.4,2l1.4,2c0.4,0.7,0.9,1.4,1.4,2l3,3.9c1,1.3,2.1,2.5,3.2,3.7l1.6,1.8
			c0.6,0.6,1.2,1.1,1.7,1.7l3.5,3.4l3.7,3.2c0.6,0.5,1.2,1.1,1.9,1.6l2,1.4l4,2.9l-0.8,1.1c-1.2-1-2.4-1.9-3.5-3
			c-1.1-1-2.1-2.2-3.1-3.4l-1.4-1.8c-0.5-0.6-0.9-1.3-1.3-1.9c-0.4-0.6-0.8-1.3-1.2-1.9c-0.4-0.7-0.8-1.3-1.1-2l-1-2l-0.9-2.1
			c-0.3-0.7-0.6-1.4-0.8-2.1c-0.3-0.7-0.5-1.4-0.8-2.1c-0.5-1.4-0.9-2.9-1.3-4.4c-0.4-1.5-0.8-2.9-1-4.4c-0.3-1.5-0.6-3-0.8-4.5
			c-0.2-1.5-0.4-3-0.6-4.5c-0.2-1.5-0.3-3-0.4-4.5c-0.1-1.5-0.2-3-0.2-4.5C285.1,522.1,285.4,516.1,286.2,510.1z"/>
	</g>
	<circle class="st4" cx="298.4" cy="353.1" r="8.6"/>
	<path class="st7" d="M340.8,321.9c1.1,0.6-0.7,13-16.4,8.6c-15.7-4.4-30.4-19.9-63.3,1c0,0-15.1-3.4-10.6-8.2
		S287.8,291.8,340.8,321.9z"/>
	<path class="st5" d="M457.2,335.3c0,0,27.8-1.5,29.3,18.7c2.2,28.8,7.9,44.3-27.5,50c-35.5,5.7-60.7,1.9-70.6-11.8
		c-9.9-13.7-23.5-47.2-4.1-52.1C403.7,335.3,457.2,335.3,457.2,335.3z"/>
	<path class="st6" d="M383.1,372.2c-0.5-1.3-1.2-2.6-2.2-3.6c-0.4-0.5-0.9-0.9-1.4-1.1c-0.6-0.2-1.3-0.2-1.7,0.2
		c-0.5,0.4-0.6,1-0.6,1.6s0.3,1.1,0.6,1.7c1.2,2.6,2.3,5.2,3,8c0.2,0.7,0.3,1.5,0.8,2.1s1.2,1.1,1.9,0.9c0.7-0.2,1.1-0.8,1.2-1.5
		c0.1-0.7,0-1.4-0.1-2C384,375.7,384.1,374.8,383.1,372.2z"/>
	<polygon class="st4" points="484.2,349.5 507,344.5 507,354.1 485.3,359.1 	"/>
	<g>
		<path class="st4" d="M400,353.7c0,0,0.4-0.7,1.3-1.8c0.9-1.1,2.2-2.6,4.1-4.1c0.9-0.7,2-1.5,3.2-2.2c1.2-0.7,2.5-1.4,4-1.9
			c1.4-0.6,3-1,4.6-1.2c1.6-0.3,3.2-0.3,4.9-0.3c0.8,0,1.6,0.1,2.4,0.2c0.8,0.2,1.6,0.2,2.4,0.5c1.6,0.4,3.1,0.9,4.5,1.5
			c1.4,0.6,2.7,1.3,3.9,2c1.2,0.7,2.3,1.4,3.2,2.2c0.5,0.4,1,0.7,1.4,1c0.4,0.4,0.8,0.7,1.2,1c0.7,0.6,1.4,1.2,1.9,1.7
			c1,1,1.6,1.5,1.6,1.5s-0.6-0.5-1.8-1.3c-0.5-0.4-1.2-0.9-2-1.5c-0.4-0.3-0.8-0.6-1.3-0.9c-0.5-0.3-0.9-0.6-1.4-0.9
			c-1-0.7-2.1-1.2-3.3-1.9c-1.2-0.6-2.5-1.2-3.9-1.7c-1.4-0.5-2.8-0.9-4.3-1.3c-0.7-0.2-1.5-0.3-2.3-0.4c-0.8-0.1-1.5-0.2-2.3-0.2
			c-1.5-0.1-3.1,0-4.6,0.2c-1.5,0.2-3,0.6-4.3,1c-1.4,0.5-2.7,1-3.9,1.6c-1.2,0.6-2.3,1.3-3.3,1.9c-1.9,1.3-3.5,2.6-4.4,3.6
			C400.6,353.1,400,353.7,400,353.7z"/>
	</g>
	<g>
		<path class="st4" d="M387,351.8c0,0,0.9-0.6,2.5-1.6c1.7-0.9,4-2.3,7-3.6c3-1.4,6.5-2.8,10.5-4c2-0.6,4-1.1,6.1-1.6
			c2.1-0.5,4.3-0.8,6.5-1c2.2-0.2,4.4-0.3,6.6-0.3c2.2,0,4.3,0.2,6.4,0.6c0.5,0.1,1,0.2,1.5,0.3c0.5,0.1,1,0.2,1.5,0.4
			c1,0.2,1.9,0.6,2.8,0.8c0.9,0.3,1.8,0.7,2.6,1c0.8,0.4,1.6,0.8,2.3,1.1c1.5,0.7,2.7,1.7,3.7,2.6c1,0.9,1.7,1.8,2.3,2.6
			c0.5,0.8,0.9,1.5,1.1,1.9c0.2,0.5,0.3,0.7,0.3,0.7s-0.1-0.2-0.4-0.7c-0.3-0.4-0.7-1-1.3-1.7c-0.6-0.7-1.4-1.5-2.5-2.3
			c-1-0.8-2.3-1.5-3.7-2.1c-0.7-0.3-1.5-0.6-2.3-0.9c-0.8-0.2-1.6-0.6-2.5-0.8c-0.9-0.2-1.8-0.5-2.7-0.6c-0.5-0.1-0.9-0.2-1.4-0.3
			c-0.5-0.1-1-0.1-1.5-0.2c-1-0.2-2-0.2-3-0.3c-1,0-2.1-0.1-3.1-0.1c-2.1,0-4.2,0.1-6.3,0.3c-2.1,0.2-4.2,0.5-6.3,0.9
			c-2.1,0.4-4.1,0.8-6,1.4c-3.9,1-7.5,2.2-10.5,3.3c-3,1.1-5.5,2.1-7.3,2.9C388,351.3,387,351.8,387,351.8z"/>
	</g>
	<g>
		<path class="st4" d="M384.3,414.5c0,0,0.6,0.4,1.5,1.1c0.5,0.4,1,0.8,1.6,1.4c0.6,0.6,1.3,1.2,2,2c0.7,0.8,1.4,1.6,2.1,2.6
			c0.7,1,1.4,2,2,3.2c0.3,0.6,0.6,1.2,0.9,1.8c0.3,0.6,0.6,1.3,0.7,1.9l0.3,1c0.1,0.3,0.2,0.7,0.2,1l0.2,1c0.1,0.4,0.1,0.7,0.1,1.1
			l0.1,1.1c0,0.4,0,0.7,0,1.1c0,0.7-0.1,1.4-0.2,2.1c-0.2,1.4-0.5,2.7-1,4c-0.5,1.3-1.1,2.4-1.9,3.4c-0.8,1-1.7,1.8-2.7,2.3
			c-2,1-3.8,1.1-5,1c-0.6,0-1.1-0.1-1.4-0.2c-0.3-0.1-0.5-0.1-0.5-0.1s0.2,0,0.5,0c0.3,0,0.8,0,1.4-0.1c0.6-0.1,1.3-0.2,2.1-0.4
			c0.8-0.3,1.6-0.6,2.4-1.2c0.8-0.5,1.5-1.3,2.1-2.2c0.6-0.9,1.1-2,1.4-3.1c0.4-1.1,0.6-2.4,0.7-3.7c0.1-0.6,0.1-1.3,0.1-1.9
			c0-0.3,0-0.7,0-0.9l-0.1-1c0-0.3-0.1-0.6-0.1-1l-0.2-1c-0.1-0.3-0.1-0.6-0.2-0.9l-0.3-0.9c-0.2-0.6-0.4-1.2-0.6-1.8
			c-0.2-0.6-0.5-1.2-0.7-1.7c-0.2-0.6-0.5-1.1-0.8-1.6c-0.3-0.5-0.6-1-0.9-1.5c-0.3-0.5-0.6-1-0.9-1.4c-0.3-0.5-0.6-0.9-0.9-1.3
			C386.2,416.5,384.3,414.5,384.3,414.5z"/>
	</g>
	<g>
		<path class="st4" d="M399.6,434.7c0,0,1,0.7,2.6,2c1.6,1.3,4,3.1,6.7,5.5c2.7,2.3,5.8,5.2,9,8.4c1.6,1.6,3.2,3.3,4.8,5
			c1.6,1.8,3.2,3.6,4.7,5.4c1.5,1.9,3,3.8,4.3,5.7c1.4,1.9,2.6,3.9,3.7,5.9c2.2,4,3.9,8,4.5,11.6c0.3,1.8,0.4,3.5,0.2,5
			c-0.2,1.5-0.5,2.7-1,3.7c-0.4,1-0.9,1.7-1.2,2.1c-0.3,0.4-0.5,0.7-0.5,0.7s0.1-0.3,0.4-0.7c0.3-0.5,0.6-1.2,0.9-2.2
			c0.3-1,0.5-2.2,0.6-3.6c0-1.4-0.2-3-0.6-4.7c-0.8-3.4-2.6-7.2-4.9-10.9c-1.1-1.9-2.4-3.8-3.8-5.7c-1.4-1.9-2.8-3.8-4.3-5.6
			c-1.5-1.8-3-3.7-4.6-5.4c-1.6-1.7-3.1-3.5-4.6-5.1c-3.1-3.3-6-6.2-8.5-8.8c-2.5-2.5-4.7-4.6-6.2-6.1
			C400.4,435.5,399.6,434.7,399.6,434.7z"/>
	</g>
	<g>
		<path class="st4" d="M433.4,510.1c0.8,6,1.1,12,0.9,18.1c0,1.5-0.1,3-0.2,4.5c-0.1,1.5-0.2,3-0.4,4.5c-0.1,1.5-0.4,3-0.6,4.5
			c-0.3,1.5-0.5,3-0.8,4.5c-0.3,1.5-0.7,3-1,4.4c-0.4,1.5-0.8,2.9-1.3,4.4c-0.2,0.7-0.5,1.4-0.8,2.1c-0.3,0.7-0.5,1.4-0.8,2.1
			l-0.9,2.1l-1,2c-0.3,0.7-0.7,1.3-1.1,2c-0.4,0.7-0.8,1.3-1.2,1.9c-0.4,0.6-0.8,1.3-1.3,1.9l-1.4,1.8c-1,1.2-2,2.3-3.1,3.4
			c-1.1,1.1-2.3,2-3.5,3l-0.8-1.1l4-2.9l2-1.4c0.6-0.5,1.3-1,1.9-1.6l3.7-3.2l3.5-3.4c0.6-0.6,1.2-1.1,1.7-1.7l1.6-1.8
			c1.1-1.2,2.2-2.4,3.2-3.7l3-3.9c0.5-0.6,1-1.3,1.4-2l1.4-2l1.4-2c0.4-0.7,0.8-1.4,1.2-2.1c0.8-1.4,1.7-2.8,2.4-4.3l2.2-4.4
			c0.7-1.5,1.3-3,2-4.5l1-2.3l0.8-2.3l0.8-2.3l0.4-1.2l0.4-1.2l1.4-4.7l1.2-4.8c0.4-1.6,0.7-3.2,1-4.8l0.5-2.4l0.4-2.4
			c0.6-3.2,0.9-6.5,1.3-9.7l0.4-4.9l0.3-4.9c0.1-3.3,0.2-6.6,0.1-9.8c-0.1-6.6-0.6-13.1-1.3-19.7c-0.4-3.3-0.8-6.5-1.4-9.8
			c-0.6-3.2-1.2-6.5-2-9.7c0.9,3.2,1.6,6.4,2.2,9.6c0.6,3.2,1.2,6.5,1.6,9.7c0.4,3.3,0.8,6.5,1.1,9.8c0.3,3.3,0.5,6.6,0.6,9.9
			c0.1,3.3,0.1,6.6,0,9.9l-0.2,4.9l-0.4,4.9c-0.3,3.3-0.6,6.6-1.2,9.8l-0.4,2.4l-0.5,2.4c-0.3,1.6-0.6,3.3-1,4.9l-1.2,4.8l-1.4,4.8
			l-0.4,1.2l-0.4,1.2l-0.8,2.3l-0.8,2.3l-1,2.3c-0.7,1.5-1.2,3.1-2,4.6l-2.2,4.5c-0.8,1.5-1.6,2.9-2.4,4.3c-0.4,0.7-0.8,1.4-1.3,2.1
			l-1.4,2.1l-1.4,2.1c-0.5,0.7-0.9,1.4-1.5,2l-3.1,3.9c-1,1.3-2.2,2.5-3.3,3.7l-1.7,1.9c-0.6,0.6-1.2,1.2-1.8,1.7l-3.6,3.4l-3.8,3.2
			c-0.6,0.5-1.3,1.1-1.9,1.6l-2,1.4l-4,2.9l-0.8-1.1c1.1-0.9,2.3-1.8,3.4-2.9c1.1-1,2.1-2.1,3.1-3.2l1.4-1.7
			c0.5-0.6,0.9-1.2,1.3-1.8c0.4-0.6,0.8-1.2,1.2-1.9c0.4-0.6,0.8-1.3,1.1-1.9l1-2l0.9-2c0.3-0.7,0.6-1.4,0.9-2.1
			c0.3-0.7,0.6-1.4,0.8-2.1c0.5-1.4,0.9-2.8,1.4-4.3c0.4-1.4,0.8-2.9,1.1-4.4c0.3-1.5,0.6-2.9,0.9-4.4c0.2-1.5,0.5-3,0.7-4.5
			c0.2-1.5,0.4-3,0.5-4.5c0.1-1.5,0.2-3,0.3-4.5c0.1-3,0.2-6,0.1-9C433.9,516.1,433.8,513.1,433.4,510.1z"/>
	</g>
	<circle class="st4" cx="421.3" cy="353.1" r="8.6"/>
	<path class="st7" d="M378.8,321.9c-1.1,0.6,0.7,13,16.4,8.6s30.4-19.9,63.3,1c0,0,15.1-3.4,10.6-8.2S431.9,291.8,378.8,321.9z"/>
	<path class="st2" d="M513.9,386.4c12.4-15.1,6.3-46,6.3-46c14.6-14.3,29.7-3.6,29.7-3.6c22.6-47-6.4-118.2-33.2-150.9
		C489.9,153.1,450,166,450,166c13.8-14.5,45.5-3.8,45.5-3.8c-21.1-20.5-50.4-0.8-50.4-0.8c7.3-12.9,34.9-18.3,34.9-18.3
		c-26.8-3.8-39,14.5-39,14.5c1.6-8.4,12.2-25.7,12.2-25.7c-9.8,7-17.1,27.3-17.1,27.3c-93.5-60.9-179.6-7.6-179.6-7.6
		c-130.8,63.9-84.2,195.7-78.8,194.7c5.4-1,16.9,4.7,16.9,4.7s0.2-6-1.4,9.2c-1.6,15.2,15.5,31.2,15.5,31.2l6.5-13.7l-4.9-100.5
		c-4.9-67.7,66.6-108,66.6-108c82.9-49.5,156,9.9,156,9.9c66.4,14.3,75.7,128.9,75.7,128.9c0,6.8-1.6,61.6-2.1,68.3L513.9,386.4z"/>
	<g>
		<path class="st4" d="M324.4,372.6c0,0-0.2,0.2-0.5,0.7c-0.3,0.4-0.8,1.1-1.5,1.9c-0.7,0.8-1.5,1.8-2.5,2.9c-1,1.1-2.1,2.3-3.4,3.6
			c-1.3,1.3-2.7,2.6-4.3,4c-1.6,1.4-3.3,2.7-5.2,4.1c-0.9,0.7-1.9,1.3-2.9,2c-1,0.7-2,1.3-3,1.9c-1,0.6-2.1,1.1-3.2,1.7
			c-1.1,0.5-2.2,1.1-3.4,1.5c-1.1,0.4-2.3,0.9-3.5,1.2c-0.6,0.2-1.2,0.4-1.8,0.5c-0.6,0.1-1.2,0.3-1.8,0.4c-1.2,0.3-2.4,0.4-3.6,0.6
			c-1.2,0.1-2.4,0.2-3.5,0.2c-1.2,0-2.3,0-3.4-0.2c-0.6-0.1-1.1-0.1-1.6-0.2c-0.5-0.1-1.1-0.2-1.6-0.3c-0.5-0.1-1-0.2-1.5-0.4
			c-0.5-0.2-1-0.3-1.4-0.5c-0.5-0.2-0.9-0.3-1.4-0.5c-0.4-0.2-0.9-0.4-1.3-0.6c-1.7-0.7-3.1-1.7-4.3-2.5c-1.2-0.9-2.2-1.7-3-2.4
			c-1.5-1.5-2.3-2.4-2.3-2.4s1,0.7,2.6,2.1c0.8,0.6,1.9,1.3,3.1,2.1c1.3,0.6,2.7,1.5,4.4,2.1c0.4,0.2,0.8,0.3,1.3,0.5
			c0.4,0.1,0.9,0.3,1.4,0.4c0.5,0.1,0.9,0.3,1.4,0.4c0.5,0.1,1,0.2,1.5,0.3c0.5,0.1,1,0.2,1.5,0.3c0.5,0,1,0.1,1.6,0.1
			c1,0.1,2.1,0.1,3.2,0.1c1.1,0,2.2-0.2,3.3-0.3c0.6-0.1,1.1-0.2,1.7-0.3c0.6-0.1,1.1-0.2,1.7-0.3c0.6-0.1,1.1-0.3,1.7-0.4
			c0.6-0.1,1.1-0.4,1.7-0.5c1.1-0.3,2.2-0.8,3.3-1.2c1.1-0.4,2.2-0.9,3.2-1.4c1-0.6,2.1-1,3.1-1.6c2-1.1,4-2.3,5.9-3.6
			c1.8-1.3,3.6-2.5,5.2-3.8c1.6-1.3,3.1-2.5,4.5-3.6c2.7-2.3,5-4.4,6.5-5.8C323.6,373.4,324.4,372.6,324.4,372.6z"/>
	</g>
	<g>
		<path class="st4" d="M320.1,361.6c0,0-0.6,0.7-1.9,1.7c-1.2,1-3.1,2.4-5.5,3.8c-2.4,1.4-5.3,2.8-8.6,3.8c-1.7,0.5-3.4,1-5.2,1.3
			c-0.9,0.2-1.8,0.3-2.7,0.4c-0.9,0.1-1.8,0.2-2.8,0.3c-0.9,0-1.9,0.1-2.8,0.1l-1.4,0l-1.4-0.1c-0.9,0-1.8-0.2-2.7-0.3
			c-0.9-0.1-1.8-0.3-2.6-0.4c-0.9-0.1-1.7-0.4-2.5-0.6c-0.8-0.2-1.6-0.5-2.3-0.7c-1.5-0.5-2.9-1.1-4.2-1.6c-1.2-0.6-2.4-1.1-3.4-1.7
			c-1-0.6-1.8-1-2.5-1.5c-1.3-0.9-2.1-1.4-2.1-1.4s0.8,0.4,2.3,1c0.7,0.4,1.6,0.7,2.6,1.1c1,0.5,2.2,0.8,3.5,1.3
			c0.6,0.2,1.3,0.4,2,0.6c0.7,0.2,1.4,0.4,2.2,0.6c0.7,0.2,1.5,0.4,2.3,0.5c0.8,0.1,1.6,0.3,2.4,0.4c1.7,0.3,3.4,0.5,5.1,0.6
			l1.3,0.1h1.3c0.9,0,1.8-0.1,2.7-0.1c0.9,0,1.8-0.2,2.7-0.2c0.9-0.1,1.8-0.2,2.6-0.4c1.7-0.3,3.4-0.7,5-1.1
			c1.6-0.5,3.2-0.9,4.6-1.5c1.4-0.5,2.8-1.1,4-1.7C317.1,363.8,320.1,361.6,320.1,361.6z"/>
	</g>
	<g>
		<path class="st4" d="M395.9,372.6c0,0,0.8,0.9,2.4,2.3c1.5,1.5,3.7,3.5,6.5,5.8c1.4,1.2,2.9,2.4,4.5,3.6c1.6,1.3,3.4,2.5,5.2,3.8
			c1.9,1.2,3.8,2.5,5.9,3.6c1,0.6,2.1,1.1,3.1,1.6c1.1,0.5,2.1,1,3.2,1.4c1.1,0.4,2.2,0.9,3.3,1.2c0.6,0.2,1.1,0.4,1.7,0.5
			c0.6,0.1,1.1,0.3,1.7,0.4c0.6,0.2,1.1,0.3,1.7,0.3c0.6,0.1,1.1,0.2,1.7,0.3c1.1,0.1,2.2,0.3,3.3,0.3c1.1,0,2.2,0.1,3.2-0.1
			c0.5,0,1-0.1,1.6-0.1c0.5-0.1,1-0.2,1.5-0.3c0.5-0.1,1-0.2,1.5-0.3c0.5-0.1,0.9-0.3,1.4-0.4c0.5-0.1,0.9-0.3,1.4-0.4
			c0.4-0.2,0.8-0.3,1.3-0.5c1.7-0.6,3.1-1.4,4.4-2.1c1.2-0.8,2.3-1.5,3.1-2.1c1.6-1.3,2.6-2.1,2.6-2.1s-0.8,0.9-2.3,2.4
			c-0.8,0.7-1.8,1.5-3,2.4c-1.3,0.8-2.6,1.8-4.3,2.5c-0.4,0.2-0.8,0.4-1.3,0.6c-0.5,0.2-0.9,0.3-1.4,0.5c-0.5,0.2-1,0.3-1.4,0.5
			c-0.5,0.1-1,0.2-1.5,0.4c-0.5,0.1-1,0.3-1.6,0.3c-0.5,0.1-1.1,0.1-1.6,0.2c-1.1,0.2-2.3,0.1-3.4,0.2c-1.2,0-2.3-0.1-3.5-0.2
			c-1.2-0.2-2.4-0.3-3.6-0.6c-0.6-0.1-1.2-0.3-1.8-0.4c-0.6-0.1-1.2-0.4-1.8-0.5c-1.2-0.3-2.3-0.8-3.5-1.2c-1.1-0.5-2.2-1-3.4-1.5
			c-1.1-0.6-2.2-1.1-3.2-1.7c-1-0.6-2.1-1.2-3-1.9c-1-0.6-1.9-1.3-2.9-2c-1.9-1.3-3.6-2.7-5.2-4.1c-1.6-1.4-3-2.7-4.3-4
			c-1.3-1.3-2.5-2.5-3.4-3.6c-1-1.1-1.8-2.1-2.5-2.9c-0.7-0.8-1.2-1.5-1.5-1.9C396.1,372.8,395.9,372.6,395.9,372.6z"/>
	</g>
	<g>
		<path class="st4" d="M400.2,361.6c0,0,3,2.1,7.9,4.4c1.2,0.6,2.6,1.1,4,1.7c1.4,0.5,3,1,4.6,1.5c1.6,0.5,3.3,0.8,5,1.1
			c0.9,0.2,1.7,0.3,2.6,0.4c0.9,0.1,1.8,0.2,2.7,0.2c0.9,0,1.8,0.1,2.7,0.1h1.3l1.3-0.1c1.7-0.1,3.5-0.3,5.1-0.5
			c0.8-0.1,1.6-0.3,2.4-0.5c0.8-0.1,1.6-0.3,2.3-0.5c0.7-0.2,1.5-0.4,2.2-0.6c0.7-0.2,1.4-0.4,2-0.6c1.3-0.5,2.5-0.8,3.5-1.3
			c1-0.4,1.9-0.8,2.6-1.1c1.5-0.7,2.3-1,2.3-1s-0.8,0.5-2.1,1.4c-0.7,0.5-1.5,0.9-2.5,1.5c-1,0.6-2.1,1.1-3.4,1.7
			c-1.3,0.5-2.6,1.1-4.2,1.6c-0.8,0.2-1.5,0.5-2.3,0.7c-0.8,0.2-1.6,0.4-2.5,0.6c-0.9,0.2-1.7,0.4-2.6,0.4c-0.9,0.1-1.8,0.2-2.7,0.3
			l-1.4,0.1l-1.4,0c-0.9,0-1.9,0-2.8-0.1c-0.9,0-1.9-0.2-2.8-0.3c-0.9-0.1-1.8-0.3-2.7-0.4c-1.8-0.3-3.5-0.8-5.2-1.3
			c-3.3-1.1-6.3-2.4-8.6-3.8c-2.4-1.4-4.3-2.7-5.5-3.8C400.9,362.3,400.2,361.6,400.2,361.6z"/>
	</g>
</g>
<path class="st4" d="M358.5,690.8c-44.9,0-88.5-8.8-129.5-26.2c-39.6-16.8-75.2-40.7-105.7-71.3C92.8,562.8,68.8,527.3,52,487.7
	c-17.4-41-26.2-84.6-26.2-129.5s8.8-88.5,26.2-129.5c16.8-39.6,40.7-75.2,71.3-105.7c30.5-30.5,66.1-54.5,105.7-71.3
	c41-17.4,84.6-26.2,129.5-26.2S447,34.3,488,51.7c39.6,16.8,75.2,40.7,105.7,71.3c30.5,30.5,54.5,66.1,71.3,105.7
	c17.4,41,26.2,84.6,26.2,129.5s-8.8,88.5-26.2,129.5c-16.8,39.6-40.7,75.2-71.3,105.7c-30.5,30.5-66.1,54.5-105.7,71.3
	C447,682,403.4,690.8,358.5,690.8z M358.5,81.5c-73.9,0-143.4,28.8-195.6,81c-52.2,52.2-81,121.7-81,195.6
	c0,73.9,28.8,143.4,81,195.6c52.2,52.2,121.7,81,195.6,81s143.4-28.8,195.6-81c52.2-52.2,81-121.7,81-195.6
	c0-73.9-28.8-143.4-81-195.6C501.9,110.3,432.4,81.5,358.5,81.5z"/>
<g>
	<polygon class="st0" points="358.5,32.7 363.7,48.6 380.4,48.6 366.9,58.4 372.1,74.3 358.5,64.5 345,74.3 350.2,58.4 336.6,48.6 
		353.4,48.6 	"/>
	<polygon class="st0" points="353.4,667.7 336.6,667.7 350.2,657.9 345,642 358.5,651.8 372.1,642 366.9,657.9 380.4,667.7 
		363.7,667.7 358.5,683.6 	"/>
	<polygon class="st0" points="33.1,358.2 49,353 49,336.2 58.8,349.8 74.7,344.6 64.9,358.2 74.7,371.7 58.8,366.5 49,380.1 
		49,363.3 	"/>
	<polygon class="st0" points="668.1,363.3 668.1,380.1 658.3,366.5 642.4,371.7 652.2,358.2 642.4,344.6 658.3,349.8 668.1,336.2 
		668.1,353 684,358.2 	"/>
	<polygon class="st0" points="128.4,128.1 143.3,135.6 155.1,123.8 152.5,140.3 167.4,147.9 150.9,150.5 148.2,167 140.7,152.1 
		124.2,154.8 136,142.9 	"/>
	<polygon class="st0" points="573.8,580.7 561.9,592.5 564.6,576 549.7,568.5 566.2,565.8 568.8,549.3 576.4,564.2 592.9,561.5 
		581.1,573.4 588.6,588.3 	"/>
	<polygon class="st0" points="128.4,588.3 136,573.4 124.2,561.5 140.7,564.2 148.2,549.3 150.9,565.8 167.4,568.5 152.5,576 
		155.1,592.5 143.3,580.7 	"/>
	<polygon class="st0" points="581.1,142.9 592.9,154.8 576.4,152.1 568.8,167 566.2,150.5 549.7,147.9 564.6,140.3 561.9,123.8 
		573.8,135.6 588.6,128.1 	"/>
	<polygon class="st0" points="234,57.5 244.9,70.2 260.3,63.8 251.6,78 262.4,90.7 246.2,86.9 237.4,101.1 236.1,84.4 219.8,80.6 
		235.3,74.2 	"/>
	<polygon class="st0" points="472.2,646.1 456.7,652.5 465.5,638.3 454.6,625.6 470.9,629.5 479.7,615.2 481,631.9 497.2,635.8 
		481.8,642.2 483.1,658.8 	"/>
	<polygon class="st0" points="57.9,482.7 70.6,471.8 64.2,456.4 78.4,465.1 91.1,454.3 87.2,470.5 101.5,479.3 84.8,480.6 
		80.9,496.9 74.5,481.4 	"/>
	<polygon class="st0" points="646.5,244.5 652.9,260 638.6,251.2 626,262.1 629.8,245.8 615.6,237 632.2,235.7 636.1,219.5 
		642.5,234.9 659.2,233.6 	"/>
	<polygon class="st0" points="57.9,233.6 74.5,234.9 80.9,219.5 84.8,235.7 101.5,237 87.2,245.8 91.1,262.1 78.4,251.2 64.2,260 
		70.6,244.5 	"/>
	<polygon class="st0" points="642.5,481.4 636.1,496.9 632.2,480.6 615.6,479.3 629.8,470.5 626,454.3 638.6,465.1 652.9,456.4 
		646.5,471.8 659.2,482.7 	"/>
	<polygon class="st0" points="234,658.8 235.3,642.2 219.8,635.8 236.1,631.9 237.4,615.2 246.1,629.5 262.4,625.6 251.6,638.3 
		260.3,652.5 244.8,646.1 	"/>
	<polygon class="st0" points="481.8,74.2 497.2,80.6 481,84.4 479.7,101.1 470.9,86.9 454.6,90.7 465.5,78 456.7,63.8 472.2,70.2 
		483.1,57.5 	"/>
	<polygon class="st0" points="295,39 303.2,53.6 319.6,50.3 308.3,62.6 316.4,77.1 301.2,70.1 289.9,82.4 291.9,65.8 276.6,58.8 
		293.1,55.6 	"/>
	<polygon class="st0" points="413.9,662.8 397.4,666 408.8,653.8 400.6,639.2 415.8,646.2 427.2,633.9 425.2,650.5 440.4,657.5 
		424,660.7 422,677.3 	"/>
	<polygon class="st0" points="39.4,421.6 53.9,413.5 50.7,397.1 62.9,408.4 77.5,400.3 70.5,415.4 82.8,426.8 66.2,424.8 59.2,440 
		55.9,423.6 	"/>
	<polygon class="st0" points="663.1,302.8 666.4,319.3 654.1,307.9 639.6,316.1 646.5,300.9 634.3,289.5 650.9,291.5 657.9,276.3 
		661.1,292.7 677.7,294.7 	"/>
	<polygon class="st0" points="88,177.4 104,181.9 113.3,168 114,184.7 130,189.2 114.4,195 115,211.7 104.7,198.6 89,204.4 
		98.3,190.5 	"/>
	<polygon class="st0" points="613,534.4 603.7,548.4 603.1,531.6 587,527.1 602.7,521.3 602.1,504.6 612.4,517.7 628.1,511.9 
		618.8,525.8 629.1,539 	"/>
	<polygon class="st0" points="177.7,628.7 182.3,612.7 168.3,603.4 185,602.7 189.6,586.7 195.4,602.3 212.1,601.7 199,612 
		204.8,627.7 190.8,618.4 	"/>
	<polygon class="st0" points="534.8,103.7 548.7,113 532,113.6 527.5,129.7 521.7,114 505,114.6 518.1,104.3 512.3,88.6 526.2,97.9 
		539.3,87.6 	"/>
	<polygon class="st0" points="177.7,87.6 190.9,97.9 204.8,88.6 199,104.3 212.1,114.6 195.4,114 189.6,129.7 185.1,113.6 
		168.3,113 182.3,103.7 	"/>
	<polygon class="st0" points="526.2,618.4 512.3,627.7 518.1,612 505,601.7 521.7,602.3 527.5,586.7 532,602.7 548.7,603.4 
		534.8,612.7 539.3,628.7 	"/>
	<polygon class="st0" points="87.9,539 98.3,525.8 89,511.9 104.7,517.7 115,504.6 114.4,521.3 130,527.1 114,531.6 113.3,548.4 
		104,534.4 	"/>
	<polygon class="st0" points="618.8,190.5 628.1,204.4 612.4,198.6 602.1,211.7 602.7,195 587,189.2 603.1,184.7 603.7,168 
		613,181.9 629.1,177.4 	"/>
	<polygon class="st0" points="39.4,294.7 55.9,292.7 59.2,276.3 66.2,291.5 82.8,289.5 70.5,300.9 77.5,316.1 62.9,307.9 
		50.7,319.3 53.9,302.8 	"/>
	<polygon class="st0" points="661.1,423.6 657.9,440 650.9,424.8 634.3,426.8 646.5,415.4 639.6,400.3 654.1,408.4 666.4,397.1 
		663.1,413.5 677.7,421.6 	"/>
	<polygon class="st0" points="295,677.3 293.1,660.7 276.6,657.5 291.8,650.5 289.9,633.9 301.2,646.2 316.4,639.2 308.3,653.8 
		319.6,666 303.2,662.8 	"/>
	<polygon class="st0" points="424,55.6 440.4,58.8 425.2,65.8 427.2,82.4 415.8,70.1 400.6,77.1 408.8,62.6 397.4,50.3 413.8,53.6 
		422,39 	"/>
</g>
</svg>
